<?xml version="1.0" encoding="utf-8"?>
<!-- Generator: Adobe Illustrator 24.0.1, SVG Export Plug-In . SVG Version: 6.00 Build 0)  -->
<svg version="1.1" id="Layer_1" xmlns="http://www.w3.org/2000/svg" xmlns:xlink="http://www.w3.org/1999/xlink" x="0px" y="0px"
	 viewBox="0 0 20 20" style="enable-background:new 0 0 20 20;" xml:space="preserve">
<style type="text/css">
	.st0{fill:#FFFFFF;}
</style>
<g>
	<path d="M2.68,10.03C2.68,9.52,2.65,9,2.88,8.51C3.25,7.73,3.87,7.3,4.71,7.2c0.16-0.02,0.24-0.07,0.31-0.21
		C5.9,5.23,7.31,4.12,9.22,3.7c2.64-0.58,5.39,0.78,6.6,3.23c0.08,0.16,0.15,0.24,0.36,0.26c1.14,0.11,2,1.06,2.01,2.21
		c0,0.52,0.03,1.04-0.04,1.55c-0.18,1.26-1.21,2.05-2.48,1.92c-0.15-0.01-0.22,0.01-0.31,0.13c-0.92,1.3-2.16,2.13-3.72,2.45
		c-0.16,0.03-0.25,0.1-0.33,0.25c-0.31,0.58-0.98,0.83-1.58,0.6c-0.61-0.23-0.97-0.87-0.83-1.48c0.14-0.64,0.72-1.09,1.37-1.04
		c0.42,0.03,0.77,0.22,0.99,0.59c0.09,0.15,0.19,0.18,0.34,0.14c1.96-0.45,3.5-2.1,3.83-4.09C15.9,7.62,13.99,5,11.18,4.58
		C8.35,4.15,5.82,6.14,5.43,8.82c-0.16,1.09,0.01,2.14,0.52,3.12c0.23,0.44,0.12,0.7-0.36,0.85c-1.46,0.45-2.91-0.62-2.91-2.15
		C2.68,10.43,2.68,10.23,2.68,10.03z"/>
	<path d="M10.44,13.54c-0.29-0.04-0.57-0.08-0.85-0.11c-0.1-0.01-0.23,0-0.32,0.05c-0.45,0.25-0.9,0.51-1.34,0.77
		c-0.21,0.12-0.42,0.17-0.62,0.01c-0.19-0.16-0.2-0.36-0.13-0.59c0.12-0.41,0.23-0.83,0.33-1.25c0.02-0.09-0.01-0.22-0.07-0.28
		C5.62,9.89,6.57,6.68,9.31,5.82c2.32-0.73,4.8,0.95,5.03,3.36c0.19,1.99-1.11,3.79-3.02,4.24C11.03,13.48,10.73,13.5,10.44,13.54z
		 M10.42,10.04c0.28,0,0.47-0.18,0.47-0.46c0-0.27-0.18-0.46-0.44-0.46c-0.27-0.01-0.47,0.19-0.47,0.46
		C9.98,9.85,10.15,10.03,10.42,10.04z M8.86,10.04c0.27,0,0.46-0.18,0.47-0.43c0.01-0.27-0.19-0.48-0.46-0.48
		c-0.26,0-0.48,0.21-0.48,0.47C8.4,9.84,8.6,10.03,8.86,10.04z M12,10.04c0.26,0,0.46-0.2,0.47-0.45c0-0.25-0.22-0.47-0.48-0.47
		c-0.26,0-0.46,0.2-0.46,0.45C11.53,9.85,11.73,10.04,12,10.04z"/>
	<path class="st0" d="M10.42,10.04c-0.27,0-0.44-0.19-0.44-0.46c0-0.27,0.2-0.47,0.47-0.46c0.26,0.01,0.44,0.2,0.44,0.46
		C10.89,9.86,10.7,10.04,10.42,10.04z"/>
	<path class="st0" d="M8.86,10.04c-0.26,0-0.46-0.2-0.47-0.45c0-0.26,0.22-0.47,0.48-0.47c0.27,0,0.47,0.21,0.46,0.48
		C9.32,9.86,9.13,10.04,8.86,10.04z"/>
	<path class="st0" d="M12,10.04c-0.28,0-0.47-0.19-0.47-0.46c0-0.26,0.2-0.45,0.46-0.45c0.26,0,0.48,0.22,0.48,0.47
		C12.47,9.84,12.26,10.04,12,10.04z"/>
</g>
</svg>
